<svg width="1600" height="980" viewBox="0 0 1600 980" fill="none" xmlns="http://www.w3.org/2000/svg">
  <rect width="1600" height="980" fill="#F5F8FC"/>
  <rect x="46" y="54" width="256" height="872" rx="30" fill="#111827"/>
  <rect x="84" y="108" width="180" height="52" rx="16" fill="#1F2937"/>
  <rect x="84" y="186" width="180" height="30" rx="12" fill="#374151"/>
  <rect x="84" y="234" width="180" height="30" rx="12" fill="#374151"/>
  <rect x="84" y="282" width="180" height="30" rx="12" fill="#0F766E"/>
  <rect x="84" y="330" width="180" height="30" rx="12" fill="#374151"/>
  <rect x="84" y="378" width="180" height="30" rx="12" fill="#374151"/>
  <rect x="352" y="54" width="1202" height="110" rx="30" fill="white"/>
  <rect x="390" y="88" width="420" height="46" rx="20" fill="#F3F4F6"/>
  <rect x="1324" y="80" width="190" height="60" rx="20" fill="#FFFFFF" stroke="#D1D5DB" stroke-width="4"/>
  <rect x="352" y="194" width="1202" height="732" rx="34" fill="white"/>
  <rect x="404" y="258" width="478" height="278" rx="30" fill="#EFF6FF"/>
  <rect x="438" y="294" width="236" height="24" rx="12" fill="#0F172A"/>
  <rect x="438" y="338" width="384" height="18" rx="9" fill="#94A3B8"/>
  <rect x="438" y="372" width="332" height="18" rx="9" fill="#CBD5E1"/>
  <rect x="438" y="420" width="410" height="84" rx="24" fill="#FFFFFF" stroke="#BFDBFE" stroke-width="4"/>
  <rect x="922" y="258" width="580" height="160" rx="30" fill="#FEF3C7"/>
  <rect x="962" y="302" width="214" height="24" rx="12" fill="#92400E"/>
  <rect x="962" y="342" width="366" height="18" rx="9" fill="#D97706"/>
  <rect x="962" y="376" width="286" height="18" rx="9" fill="#F59E0B"/>
  <rect x="922" y="450" width="580" height="324" rx="30" fill="#F8FAFC" stroke="#E2E8F0" stroke-width="4"/>
  <rect x="962" y="494" width="496" height="22" rx="11" fill="#0F172A"/>
  <rect x="962" y="536" width="442" height="16" rx="8" fill="#94A3B8"/>
  <rect x="962" y="570" width="470" height="16" rx="8" fill="#CBD5E1"/>
  <rect x="962" y="618" width="228" height="120" rx="24" fill="#D1FAE5"/>
  <rect x="1214" y="618" width="244" height="120" rx="24" fill="#DBEAFE"/>
</svg>
