<svg width="1600" height="980" viewBox="0 0 1600 980" fill="none" xmlns="http://www.w3.org/2000/svg">
  <rect width="1600" height="980" fill="#F8FAFC"/>
  <rect x="132" y="222" width="340" height="350" rx="36" fill="#FFFFFF" stroke="#DBEAFE" stroke-width="4"/>
  <rect x="630" y="222" width="340" height="350" rx="36" fill="#FFFFFF" stroke="#D1FAE5" stroke-width="4"/>
  <rect x="1128" y="222" width="340" height="350" rx="36" fill="#FFFFFF" stroke="#FDE68A" stroke-width="4"/>
  <circle cx="302" cy="188" r="44" fill="#2563EB"/>
  <circle cx="800" cy="188" r="44" fill="#0F766E"/>
  <circle cx="1298" cy="188" r="44" fill="#D97706"/>
  <path d="M474 396H614" stroke="#94A3B8" stroke-width="12" stroke-linecap="round"/>
  <path d="M972 396H1112" stroke="#94A3B8" stroke-width="12" stroke-linecap="round"/>
  <path d="M596 366L646 396L596 426" stroke="#94A3B8" stroke-width="12" stroke-linecap="round" stroke-linejoin="round"/>
  <path d="M1094 366L1144 396L1094 426" stroke="#94A3B8" stroke-width="12" stroke-linecap="round" stroke-linejoin="round"/>
  <rect x="182" y="286" width="240" height="28" rx="14" fill="#0F172A"/>
  <rect x="182" y="336" width="212" height="18" rx="9" fill="#CBD5E1"/>
  <rect x="182" y="370" width="194" height="18" rx="9" fill="#CBD5E1"/>
  <rect x="182" y="418" width="240" height="92" rx="24" fill="#EFF6FF"/>
  <rect x="680" y="286" width="240" height="28" rx="14" fill="#0F172A"/>
  <rect x="680" y="336" width="222" height="18" rx="9" fill="#CBD5E1"/>
  <rect x="680" y="370" width="180" height="18" rx="9" fill="#CBD5E1"/>
  <rect x="680" y="418" width="240" height="92" rx="24" fill="#ECFDF5"/>
  <rect x="1178" y="286" width="240" height="28" rx="14" fill="#0F172A"/>
  <rect x="1178" y="336" width="198" height="18" rx="9" fill="#CBD5E1"/>
  <rect x="1178" y="370" width="220" height="18" rx="9" fill="#CBD5E1"/>
  <rect x="1178" y="418" width="240" height="92" rx="24" fill="#FEF3C7"/>
  <rect x="312" y="676" width="976" height="136" rx="32" fill="#111827"/>
  <rect x="370" y="728" width="234" height="20" rx="10" fill="#FFFFFF"/>
  <rect x="640" y="728" width="228" height="20" rx="10" fill="#FFFFFF"/>
  <rect x="904" y="728" width="336" height="20" rx="10" fill="#FFFFFF"/>
</svg>
