<svg width="1600" height="980" viewBox="0 0 1600 980" fill="none" xmlns="http://www.w3.org/2000/svg">
  <rect width="1600" height="980" fill="#F8FAFC"/>
  <rect x="146" y="132" width="400" height="706" rx="40" fill="#111827"/>
  <rect x="594" y="132" width="860" height="220" rx="36" fill="#ECFDF5"/>
  <rect x="594" y="392" width="412" height="446" rx="36" fill="#FFFFFF" stroke="#D1FAE5" stroke-width="4"/>
  <rect x="1042" y="392" width="412" height="446" rx="36" fill="#FFFFFF" stroke="#E0E7FF" stroke-width="4"/>
  <rect x="206" y="206" width="280" height="28" rx="14" fill="#FFFFFF"/>
  <rect x="206" y="270" width="232" height="20" rx="10" fill="#4B5563"/>
  <rect x="206" y="318" width="248" height="20" rx="10" fill="#4B5563"/>
  <rect x="206" y="366" width="212" height="20" rx="10" fill="#4B5563"/>
  <rect x="206" y="414" width="236" height="20" rx="10" fill="#4B5563"/>
  <rect x="206" y="462" width="188" height="20" rx="10" fill="#4B5563"/>
  <rect x="206" y="510" width="218" height="20" rx="10" fill="#4B5563"/>
  <rect x="654" y="194" width="276" height="24" rx="12" fill="#065F46"/>
  <rect x="654" y="240" width="356" height="18" rx="9" fill="#10B981"/>
  <rect x="654" y="274" width="314" height="18" rx="9" fill="#6EE7B7"/>
  <rect x="648" y="470" width="304" height="24" rx="12" fill="#0F172A"/>
  <rect x="648" y="514" width="270" height="18" rx="9" fill="#94A3B8"/>
  <rect x="1096" y="470" width="304" height="24" rx="12" fill="#0F172A"/>
  <rect x="1096" y="514" width="250" height="18" rx="9" fill="#94A3B8"/>
  <rect x="648" y="582" width="304" height="190" rx="26" fill="#EFF6FF"/>
  <rect x="1096" y="582" width="304" height="190" rx="26" fill="#EEF2FF"/>
</svg>
